<?xml version="1.0" standalone="no"?> 
<!DOCTYPE svg PUBLIC "-//W3C//DTD SVG 1.1//EN" "http://www.w3.org/Graphics/SVG/1.1/DTD/svg11.dtd" >
<svg xmlns="http://www.w3.org/2000/svg">
<defs>
  <font id="icons" horiz-adv-x="512">
    <font-face font-family="icons"
      units-per-em="512" ascent="512"
      descent="0" />
    <missing-glyph horiz-adv-x="0" />
    <glyph glyph-name="arrow-down"
      unicode="&#xF101;"
      horiz-adv-x="512" d=" M158.186 336.853L256 239.039L353.813 336.853L384 306.667L256 178.667L128 306.667z" />
    <glyph glyph-name="arrow-left"
      unicode="&#xF102;"
      horiz-adv-x="512" d=" M328.853 163.52L231.039 261.334L328.853 359.148L298.666 389.334L170.666 261.334L298.666 133.334z" />
    <glyph glyph-name="arrow-right"
      unicode="&#xF103;"
      horiz-adv-x="512" d=" M183.147 160.853L280.961 258.6670000000001L183.147 356.481L213.333 386.6670000000001L341.3330000000001 258.6670000000001L213.333 130.667z" />
    <glyph glyph-name="arrow-up"
      unicode="&#xF104;"
      horiz-adv-x="512" d=" M158.186 183.147L256 280.961L353.813 183.147L384 213.334L256 341.334L128 213.334z" />
    <glyph glyph-name="book"
      unicode="&#xF105;"
      horiz-adv-x="512" d=" M431.45 417.274H328.771C320.367 417.274 311.9960000000001 415.195 304.5710000000001 411.266L255.469 385.298L206.354 411.274C198.922 415.1960000000001 190.559 417.275 182.161 417.275H79.482C61.485 417.275 46.844 402.6330000000001 46.844 384.637V167.397C46.844 149.401 61.486 134.76 79.482 134.76H182.161C186.184 134.76 190.187 133.767 193.738 131.884L244.676 104.944C247.984 103.189 251.723 102.264 255.469 102.264C259.216 102.264 262.949 103.189 266.242 104.944L317.1950000000001 131.884C320.7520000000001 133.767 324.7480000000001 134.76 328.7710000000001 134.76H431.45C449.447 134.76 464.088 149.401 464.088 167.397V384.637C464.088 402.633 449.447 417.274 431.45 417.274L431.45 417.274zM182.161 161.761H79.482C76.377 161.761 73.845 164.291 73.845 167.3970000000001V384.6370000000001C73.845 387.7420000000001 76.377 390.273 79.482 390.273H182.161C186.178 390.273 190.187 389.2740000000001 193.738 387.398L241.969 361.8880000000001V136.9260000000001L206.367 155.7530000000001C198.942 159.682 190.565 161.761 182.161 161.761L182.161 161.761zM437.087 167.396C437.087 164.291 434.557 161.76 431.45 161.76H328.771C320.367 161.76 311.9960000000001 159.681 304.5710000000001 155.752L268.9700000000001 136.925V361.895L317.1950000000001 387.398C320.7520000000001 389.274 324.7480000000001 390.273 328.7710000000001 390.273H431.45C434.556 390.273 437.087 387.742 437.087 384.637V167.396L437.087 167.396z" />
    <glyph glyph-name="cart"
      unicode="&#xF106;"
      horiz-adv-x="512" d=" M278.120543 258.887253C282.945816 258.887253 287.471629 260.768771 290.878701 264.175843L344.0245060000001 317.321648L328.0457330000001 333.3004210000001L289.420949 294.681286L289.420949 460.12486718L266.820138 460.12486718L266.820138 294.675636L228.189704 333.3004210000001L212.210931 317.321648L265.356736 264.175843C268.769458 260.768771 273.29527 258.887253 278.120543 258.887253 M167.393524 178.3097150000001L388.519851 178.3097150000001C400.905095 178.3097150000001 411.759134 186.6663640000001 414.928898 198.6391440000001L462.622257 378.8241027000001L440.7729240000001 384.6099101L393.079564 204.419301C392.531495 202.351327 390.6556280000001 200.910525 388.519851 200.910525L167.393524 200.910525C165.257748 200.910525 163.38188 202.351327 162.839461 204.419301L121.4517273 360.771706C116.423047 379.7563862 99.1955794 393.0174115 79.5554754 393.0174115L46.29838318 393.0174115L46.29838318 370.4166013L79.5554754 370.4166013C88.9517622 370.4166013 97.1954077 364.071424 99.5967438 354.991548L140.9901277 198.6391440000001C144.154241 186.6663640000001 155.01393 178.3097150000001 167.393524 178.3097150000001 M189.282409 147.391806C162.715156 147.391806 141.0974815 125.779782 141.0974815 99.206879C141.0974815 72.633977 162.715156 51.021952 189.282409 51.021952C215.855311 51.021952 237.472986 72.633977 237.472986 99.206879C237.472986 125.779782 215.855311 147.391806 189.282409 147.391806L189.282409 147.391806zM189.282409 73.622762C175.173853 73.622762 163.698292 85.098323 163.698292 99.206879C163.698292 113.315435 175.173853 124.790996 189.282409 124.790996C203.396615 124.790996 214.872176 113.315435 214.872176 99.206879C214.872176 85.098323 203.396615 73.622762 189.282409 73.622762L189.282409 73.622762z M366.958678 147.391806C340.391426 147.391806 318.768101 125.779782 318.768101 99.206879C318.768101 72.633977 340.391426 51.021952 366.958678 51.021952C393.52593 51.021952 415.1436050000001 72.633977 415.1436050000001 99.206879C415.1436050000001 125.779782 393.52593 147.391806 366.958678 147.391806L366.958678 147.391806zM366.958678 73.622762C352.850122 73.622762 341.3689110000001 85.098323 341.3689110000001 99.206879C341.3689110000001 113.315435 352.850122 124.790996 366.958678 124.790996C381.0672340000001 124.790996 392.542795 113.315435 392.542795 99.206879C392.542795 85.098323 381.0672340000001 73.622762 366.958678 73.622762L366.958678 73.622762z" />
    <glyph glyph-name="check"
      unicode="&#xF107;"
      horiz-adv-x="512" d=" M192 167.04L103.04 256L72.854 225.813L192 106.666L448 362.666L417.813 392.852z" />
    <glyph glyph-name="checkbox-off"
      unicode="&#xF108;"
      horiz-adv-x="512" d=" M405.334 405.334V106.668H106.668V405.334H405.334zM405.334 448H106.668C83.202 448 64.002 428.8 64.002 405.334V106.668C64.002 83.202 83.202 64.002 106.668 64.002H405.334C428.8 64.002 448 83.202 448 106.668V405.334C448 428.8 428.8 448 405.334 448z" />
    <glyph glyph-name="checkbox-on"
      unicode="&#xF109;"
      horiz-adv-x="512" d=" M405.334 448H106.668C82.988 448 64.002 428.8 64.002 405.334V106.668C64.002 83.202 82.988 64.002 106.668 64.002H405.334C429.014 64.002 448 83.202 448 106.668V405.334C448 428.8 429.014 448 405.334 448zM213.333 149.334L106.667 256L136.747 286.08L213.334 209.707L375.254 371.627L405.334 341.334L213.334 149.334z" />
    <glyph glyph-name="cross"
      unicode="&#xF10A;"
      horiz-adv-x="512" d=" M405.334 375.147L375.147 405.333L256 286.186L136.853 405.333L106.667 375.147L225.814 256L106.667 136.853L136.853 106.666L256 225.813L375.147 106.666L405.334 136.853L286.187 256z" />
    <glyph glyph-name="facebook"
      unicode="&#xF10B;"
      horiz-adv-x="512" d=" M362.26 465.519L362.26 465.519L362.26 465.519V381.3110000000001H320.156C305.641 381.3110000000001 299.103 364.257 299.103 349.733V297.1040000000001L299.103 297.1040000000001H362.259V212.8970000000001H299.103V44.4820000000001H214.896V212.896H151.74V297.103H214.896V381.3110000000001C214.896 427.8350000000001 252.58 465.519 299.103 465.519H362.26z" />
    <glyph glyph-name="hamburger"
      unicode="&#xF10C;"
      horiz-adv-x="512" d=" M42.666 181.334V138.668H469.332V181.334H42.666zM42.666 288V245.334H469.332V288H42.666zM42.666 394.666V352H469.332V394.666H42.666z" />
    <glyph glyph-name="logo--small"
      unicode="&#xF10D;"
      horiz-adv-x="76" d=" M26.784 31.82C24.1439868 29.6359891 20.7600206 28.544 16.632 28.544C13.8479861 28.544 10.956015 29.047995 7.956 30.056C4.955985 31.064005 2.30401152 32.4799909 0 34.304L3.888 40.568C8.35202232 37.2079832 12.6719791 35.528 16.848 35.528C18.6720091 35.528 20.1119947 35.9479958 21.168 36.788C22.2240053 37.6280042 22.752 38.6959935 22.752 39.992C22.752 41.9120096 20.2080254 43.6399923 15.12 45.176C14.7359981 45.3200007 14.448001 45.4159998 14.256 45.464C6.28796016 47.6240108 2.304 51.2239748 2.304 56.264C2.304 59.81601776 3.6839862 62.65998932 6.444 64.796C9.2040138 66.93201068 12.7919779 68 17.208 68C21.6240221 68 25.7999803 66.70401296 29.736 64.112L26.712 58.136C23.5919844 60.20001032 20.2080182 61.232 16.56 61.232C14.6399904 61.232 13.080006 60.88400348 11.88 60.188C10.679994 59.49199652 10.08 58.44800696 10.08 57.056C10.08 55.8079938 10.7039938 54.8960029 11.952 54.32C12.8160043 53.8879978 14.0279922 53.4800019 15.588 53.096C17.1480078 52.7119981 18.527994 52.3280019 19.728 51.944C20.928006 51.5599981 22.0919944 51.1280024 23.22 50.648C24.3480056 50.1679976 25.5599935 49.4960043 26.856 48.632C29.448013 46.9039914 30.744 44.2160182 30.744 40.568C30.744 36.9199818 29.4240132 34.0040109 26.784 31.82L26.784 31.82zM69.584 62.672C73.2320182 59.11998224 75.056 54.3920295 75.056 48.488C75.056 42.5839705 73.2440181 37.7840185 69.62 34.088C65.9959819 30.3919815 61.7720241 28.544 56.948 28.544C52.1239759 28.544 47.7920192 30.6559789 43.952 34.88L43.952 15.152L35.888 15.152L35.888 67.424L43.952 67.424L43.952 60.728C47.1200158 65.57602424 51.2719743 68 56.408 68C61.5440257 68 65.9359818 66.22401776 69.584 62.672L69.584 62.672zM47.12 39.236C49.328011 36.9079884 52.0159842 35.744 55.184 35.744C58.3520158 35.744 61.1119882 36.8959885 63.464 39.2C65.8160118 41.5040115 66.992 44.4919816 66.992 48.164C66.992 51.8360184 65.8400115 54.8839879 63.536 57.308C61.2319885 59.73201212 58.4720161 60.944 55.256 60.944C52.0399839 60.944 49.328011 59.73201212 47.12 57.308C44.911989 54.8839879 43.808 51.8480182 43.808 48.2C43.808 44.5519818 44.911989 41.5640116 47.12 39.236L47.12 39.236z M-484 -477.5C-484 -766.6210665364204 -249.6210665364204 -1001 39.5 -1001C328.6210665364204 -1001 563 -766.6210665364204 563 -477.5C563 -188.3789334635796 328.6210665364204 46 39.5 46C-249.6210665364204 46 -484 -188.3789334635796 -484 -477.5z M36.4788732 8.5211268C37.4647937 9.5070472 38.6384908 10 40 10C41.3615092 10 42.5352063 9.5070472 43.5211268 8.5211268C44.5070472 7.5352063 45 6.3615092 45 5C45 3.6384908 44.5070472 2.4647937 43.5211268 1.4788732C42.5352063 0.4929528 41.3615092 0 40 0C38.6384908 0 37.4647937 0.4929528 36.4788732 1.4788732C35.4929528 2.4647937 35 3.6384908 35 5C35 6.3615092 35.4929528 7.5352063 36.4788732 8.5211268z" />
    <glyph glyph-name="mail"
      unicode="&#xF10E;"
      horiz-adv-x="512" d=" M426.666 426.666H85.332C61.759 426.666 42.879 407.573 42.879 384L42.665 128C42.665 104.426 61.758 85.334 85.331 85.334H426.665C450.239 85.334 469.331 104.428 469.331 128V384C469.331 407.573 450.237 426.666 426.665 426.666zM426.666 341.333L255.999 234.666L85.332 341.332V383.998L255.999 277.332L426.666 383.998V341.332z" />
    <glyph glyph-name="question-circle"
      unicode="&#xF10F;"
      horiz-adv-x="448" d=" M224 104V152Q224 155.5 221.75 157.75T216 160H168Q164.5 160 162.25 157.75T160 152V104Q160 100.5 162.25 98.25T168 96H216Q219.5 96 221.75 98.25T224 104zM288 272Q288 294 274.125 312.75T239.5 341.75T197 352Q136.25 352 104.25 298.75Q100.5 292.75 106.25 288.25L139.25 263.25Q141 261.75 144 261.75Q148 261.75 150.25 264.75Q163.5 281.75 171.75 287.75Q180.25 293.75 193.25 293.75Q205.25 293.75 214.625 287.25T224 272.5Q224 263 219 257.25T202 246Q186.25 239 173.125 224.375T160 193V184Q160 180.5 162.25 178.25T168 176H216Q219.5 176 221.75 178.25T224 184Q224 188.75 229.375 196.375T243 208.75Q251 213.25 255.25 215.875T266.75 224.625T277.875 236.625T284.875 251.75T288 272zM384 224Q384 171.75 358.25 127.625T288.375 57.75T192 32T95.625 57.75T25.75 127.625T0 224T25.75 320.375T95.625 390.25T192 416T288.375 390.25T358.25 320.375T384 224z" />
    <glyph glyph-name="quotes"
      unicode="&#xF110;"
      horiz-adv-x="512" d=" M112.5 288C174.356 288 224.5 237.855 224.5 176S174.356 64 112.5 64C50.644 64 0.5 114.144 0.5 176L0 192C0 315.712 100.288 416 224 416V352C181.263 352 141.083 335.357 110.863 305.137C105.046 299.319 99.737 293.129 94.948 286.627C100.667 287.5270000000001 106.528 288 112.5 288zM400.5 288C462.355 288 512.5 237.855 512.5 176S462.355 64 400.5 64C338.645 64 288.5 114.144 288.5 176L288 192C288 315.712 388.288 416 512 416V352C469.263 352 429.083 335.357 398.863 305.137C393.045 299.319 387.736 293.129 382.947 286.627C388.6670000000001 287.5270000000001 394.527 288 400.5 288z" />
    <glyph glyph-name="radio-off"
      unicode="&#xF111;"
      horiz-adv-x="512" d=" M256 469.334C138.24 469.334 42.667 373.76 42.667 256S138.24 42.667 256 42.667S469.333 138.24 469.333 256S373.76 469.333 256 469.333zM256 85.334C161.707 85.334 85.333 161.707 85.333 256.001S161.707 426.668 256 426.668S426.6670000000001 350.294 426.6670000000001 256.001S350.293 85.334 256 85.334z" />
    <glyph glyph-name="radio-on"
      unicode="&#xF112;"
      horiz-adv-x="512" d=" M256 362.6670000000001C197.12 362.6670000000001 149.334 314.881 149.334 256S197.12 149.334 256 149.334S362.666 197.12 362.666 256S314.88 362.666 256 362.666zM256 469.334C138.24 469.334 42.667 373.76 42.667 256S138.24 42.667 256 42.667S469.333 138.24 469.333 256S373.76 469.333 256 469.333zM256 85.334C161.707 85.334 85.333 161.707 85.333 256.001S161.707 426.668 256 426.668S426.6670000000001 350.294 426.6670000000001 256.001S350.293 85.334 256 85.334z" />
    <glyph glyph-name="search"
      unicode="&#xF113;"
      horiz-adv-x="512" d=" M434.196088 95.189585L327.876227 201.503796C348.267808 226.364688 360.528747 258.141427 360.528747 292.726317C360.528747 372.173815 295.89043 436.8064815 216.448582 436.8064815C137.001084 436.8064815 72.3684172 372.173815 72.3684172 292.726317C72.3684172 213.284469 137.001084 148.646152 216.448582 148.646152C253.186199 148.646152 286.742752 162.489148 312.219515 185.208612L418.211665 79.205162L434.196088 95.189585L434.196088 95.189585zM216.448582 171.246962C149.459781 171.246962 94.9692274 225.743165 94.9692274 292.726317C94.9692274 359.709468 149.459781 414.2056713 216.448582 414.2056713C283.431733 414.2056713 337.927937 359.709468 337.927937 292.726317C337.927937 225.743165 283.431733 171.246962 216.448582 171.246962L216.448582 171.246962z" />
    <glyph glyph-name="twitter"
      unicode="&#xF114;"
      horiz-adv-x="512" d=" M475.197 391.091C459.123 383.788 441.808 378.99 423.881 376.699C442.236 387.75 456.4349999999999 405.28 463.096 426.344C445.781 415.914 426.591 408.611 406.363 404.445C389.883 422.382 366.7200000000001 432.812 340.4410000000001 432.812C291.4280000000001 432.812 251.3680000000001 392.762 251.3680000000001 343.3210000000001C251.3680000000001 336.232 252.2030000000001 329.346 253.6600000000001 322.878C179.3960000000001 326.637 113.2710000000001 362.307 69.259 416.332C61.538 403.192 57.1580000000001 387.751 57.1580000000001 371.484C57.1580000000001 340.398 72.803 312.866 97.0040000000001 297.221C82.1940000000001 297.221 68.4230000000001 301.397 56.3220000000001 307.651C56.3220000000001 307.651 56.3220000000001 307.651 56.3220000000001 307.02C56.3220000000001 263.639 87.1950000000001 227.349 128.0800000000001 219.199C120.573 217.122 112.6490000000001 216.062 104.511 216.062C98.878 216.062 93.245 216.713 87.827 217.733C99.092 182.49 131.8390000000001 156.2119999999999 171.2670000000001 155.5799999999999C140.8120000000001 131.3789999999999 102.2190000000001 117.1999999999999 60.0810000000001 117.1999999999999C52.9920000000001 117.1999999999999 45.892 117.6279999999999 38.8030000000001 118.442C78.4350000000001 92.999 125.5840000000001 78.189 176.0650000000001 78.189C340.4400000000001 78.189 430.7680000000001 214.616 430.7680000000001 332.891C430.7680000000001 336.853 430.7680000000001 340.612 430.5630000000001 344.574C448.082 357.092 463.096 372.94 475.197 391.091z" />
  </font>
</defs>
</svg>
